{
	"asset":{
		"generator":"Khronos glTF Blender I/O v5.1.19",
		"version":"2.0"
	},
	"scene":0,
	"scenes":[
		{
			"name":"Scene",
			"nodes":[
				79
			]
		}
	],
	"nodes":[
		{
			"name":"mixamorig:HeadTop_End_end",
			"rotation":[
				3.2791099613405095e-08,
				4.470347647611561e-08,
				1.4400280079485128e-08,
				1
			],
			"scale":[
				1.0000001192092896,
				1,
				1.0000001192092896
			],
			"translation":[
				1.001211558104842e-09,
				0.25538158416748047,
				8.351049629595764e-09
			]
		},
		{
			"children":[
				0
			],
			"name":"mixamorig:HeadTop_End",
			"rotation":[
				-2.9174291427125354e-08,
				-6.705522537231445e-08,
				-3.6467833197662003e-09,
				1
			],
			"translation":[
				0.020452158525586128,
				0.24884307384490967,
				0.053653523325920105
			]
		},
		{
			"children":[
				1
			],
			"name":"mixamorig:Head",
			"rotation":[
				4.102634321156984e-08,
				7.450580596923828e-08,
				4.558485144912083e-09,
				1
			],
			"translation":[
				0.0020172621589154005,
				0.0245440024882555,
				0.0052919876761734486
			]
		},
		{
			"children":[
				2
			],
			"name":"mixamorig:Neck",
			"rotation":[
				0.03829397261142731,
				-0.0005975373205728829,
				-0.014571096748113632,
				0.99916011095047
			],
			"scale":[
				0.9999999403953552,
				0.9999999403953552,
				1
			],
			"translation":[
				-7.450580596923828e-09,
				0.1219288632273674,
				5.122274160385132e-09
			]
		},
		{
			"name":"mixamorig:LeftHandThumb4_end",
			"rotation":[
				-8.242204785346985e-08,
				-6.28642737865448e-09,
				-1.2592136044986546e-06,
				1
			],
			"scale":[
				1,
				0.9999999403953552,
				1
			],
			"translation":[
				-1.1175870895385742e-08,
				0.01790720224380493,
				5.2445102483034134e-08
			]
		},
		{
			"children":[
				4
			],
			"name":"mixamorig:LeftHandThumb4",
			"rotation":[
				1.6298145055770874e-08,
				-2.4191103875637054e-07,
				-5.120928108226508e-07,
				1
			],
			"scale":[
				1,
				0.9999999403953552,
				1
			],
			"translation":[
				0.004765703808516264,
				0.01726115122437477,
				0.00011923699639737606
			]
		},
		{
			"children":[
				5
			],
			"name":"mixamorig:LeftHandThumb3",
			"rotation":[
				-0.028847424313426018,
				-0.010568389669060707,
				-0.0010268958285450935,
				0.9995274543762207
			],
			"scale":[
				1,
				1,
				0.9999999403953552
			],
			"translation":[
				0.00019227596931159496,
				0.023446915671229362,
				9.082956239581108e-06
			]
		},
		{
			"children":[
				6
			],
			"name":"mixamorig:LeftHandThumb2",
			"rotation":[
				-0.071436308324337,
				-0.025749554857611656,
				-0.005148813594132662,
				0.9970994591712952
			],
			"scale":[
				0.9999999403953552,
				1,
				0.9999998807907104
			],
			"translation":[
				-0.0049359058029949665,
				0.022830327972769737,
				-0.0004841341869905591
			]
		},
		{
			"children":[
				7
			],
			"name":"mixamorig:LeftHandThumb1",
			"rotation":[
				0.10872387140989304,
				0.09558986127376556,
				0.3848077654838562,
				0.9115726351737976
			],
			"scale":[
				0.9999998807907104,
				0.9999999403953552,
				1
			],
			"translation":[
				-0.02381383255124092,
				0.015030274167656898,
				0.007735227234661579
			]
		},
		{
			"name":"mixamorig:LeftHandIndex4_end",
			"rotation":[
				6.7368314375926275e-06,
				2.009328454732895e-06,
				-0.0002371373411733657,
				1
			],
			"scale":[
				1,
				1,
				0.9999998807907104
			],
			"translation":[
				0,
				0.017492786049842834,
				2.7206260710954666e-07
			]
		},
		{
			"children":[
				9
			],
			"name":"mixamorig:LeftHandIndex4",
			"rotation":[
				5.959539339528419e-05,
				1.1989272934442852e-05,
				-0.0011483525158837438,
				0.9999993443489075
			],
			"scale":[
				1,
				0.9999999403953552,
				1
			],
			"translation":[
				-1.862645149230957e-09,
				0.017493078485131264,
				6.938353180885315e-08
			]
		},
		{
			"children":[
				10
			],
			"name":"mixamorig:LeftHandIndex3",
			"rotation":[
				-0.041903432458639145,
				-0.015185296535491943,
				0.00021838799875695258,
				0.9990062713623047
			],
			"scale":[
				1,
				1,
				0.9999999403953552
			],
			"translation":[
				-9.313225746154785e-09,
				0.021145693957805634,
				3.3457763493061066e-07
			]
		},
		{
			"children":[
				11
			],
			"name":"mixamorig:LeftHandIndex2",
			"rotation":[
				0.11006948351860046,
				0.040232736617326736,
				0.002497019711881876,
				0.9931061267852783
			],
			"scale":[
				1,
				0.9999998807907104,
				1
			],
			"translation":[
				3.4924596548080444e-09,
				0.02284848876297474,
				4.473840817809105e-07
			]
		},
		{
			"children":[
				12
			],
			"name":"mixamorig:LeftHandIndex1",
			"rotation":[
				-0.010251984931528568,
				-0.00644661346450448,
				0.12900012731552124,
				0.9915706515312195
			],
			"scale":[
				1.0000001192092896,
				0.9999999403953552,
				1
			],
			"translation":[
				-0.025099467486143112,
				0.05364090949296951,
				0.0005807913257740438
			]
		},
		{
			"name":"mixamorig:LeftHandMiddle4_end",
			"rotation":[
				-5.549664479076455e-07,
				-4.728208864435146e-07,
				9.664189747127239e-06,
				1
			],
			"scale":[
				0.9999999403953552,
				0.9999998807907104,
				0.9999999403953552
			],
			"translation":[
				-2.2351741790771484e-08,
				0.020051680505275726,
				2.1257437765598297e-07
			]
		},
		{
			"children":[
				14
			],
			"name":"mixamorig:LeftHandMiddle4",
			"rotation":[
				5.9905364651058335e-06,
				8.650823133393715e-07,
				-0.00022167529095895588,
				1
			],
			"scale":[
				0.9999999403953552,
				0.9999999403953552,
				1
			],
			"translation":[
				1.30385160446167e-08,
				0.02005140110850334,
				1.1359225027263165e-07
			]
		},
		{
			"children":[
				15
			],
			"name":"mixamorig:LeftHandMiddle3",
			"rotation":[
				-0.035730209201574326,
				-0.012998067773878574,
				-0.001611456274986267,
				0.9992756843566895
			],
			"scale":[
				0.9999999403953552,
				1,
				0.9999999403953552
			],
			"translation":[
				-1.1175870895385742e-08,
				0.02380898781120777,
				-1.6298145055770874e-09
			]
		},
		{
			"children":[
				16
			],
			"name":"mixamorig:LeftHandMiddle2",
			"rotation":[
				0.07633136212825775,
				0.027862271293997765,
				0.0029469251167029142,
				0.9966887831687927
			],
			"translation":[
				-1.1175870895385742e-08,
				0.023929718881845474,
				7.619382813572884e-08
			]
		},
		{
			"children":[
				17
			],
			"name":"mixamorig:LeftHandMiddle1",
			"rotation":[
				0.012286609970033169,
				0.004955655429512262,
				0.07051022350788116,
				0.9974230527877808
			],
			"scale":[
				1,
				0.9999998211860657,
				1
			],
			"translation":[
				-0.0071824900805950165,
				0.05548009276390076,
				-0.0009642071090638638
			]
		},
		{
			"name":"mixamorig:LeftHandRing4_end",
			"rotation":[
				5.640323706757044e-06,
				3.732800450961804e-06,
				-0.0006638271152041852,
				0.9999997615814209
			],
			"scale":[
				0.9999999403953552,
				1.0000001192092896,
				0.9999999403953552
			],
			"translation":[
				2.60770320892334e-08,
				0.01591004617512226,
				1.330627128481865e-07
			]
		},
		{
			"children":[
				19
			],
			"name":"mixamorig:LeftHandRing4",
			"rotation":[
				-9.668425263953395e-06,
				-9.58088094193954e-06,
				0.0017866634298115969,
				0.9999983906745911
			],
			"translation":[
				1.6763806343078613e-08,
				0.015910012647509575,
				2.00001522898674e-07
			]
		},
		{
			"children":[
				20
			],
			"name":"mixamorig:LeftHandRing3",
			"rotation":[
				-0.08098618686199188,
				-0.02964096888899803,
				-0.004444563761353493,
				0.9962645173072815
			],
			"scale":[
				1,
				1.0000001192092896,
				1
			],
			"translation":[
				-5.587935447692871e-09,
				0.021485231816768646,
				1.0918301995843649e-07
			]
		},
		{
			"children":[
				21
			],
			"name":"mixamorig:LeftHandRing2",
			"rotation":[
				0.11942709982395172,
				0.043509677052497864,
				0.0030425076838582754,
				0.9918845295906067
			],
			"scale":[
				0.9999999403953552,
				1,
				0.9999999403953552
			],
			"translation":[
				1.862645149230957e-08,
				0.021482784301042557,
				1.5669502317905426e-07
			]
		},
		{
			"children":[
				22
			],
			"name":"mixamorig:LeftHandRing1",
			"rotation":[
				-0.03467782586812973,
				-0.013640619814395905,
				0.01885448768734932,
				0.9991275668144226
			],
			"scale":[
				0.9999999403953552,
				0.9999998807907104,
				0.9999998807907104
			],
			"translation":[
				0.01017225906252861,
				0.05885742977261543,
				0.0005062511190772057
			]
		},
		{
			"name":"mixamorig:LeftHandPinky4_end",
			"rotation":[
				-2.4541926904930733e-05,
				6.95233984515653e-06,
				-0.0022348896600306034,
				0.9999974966049194
			],
			"scale":[
				1.0000001192092896,
				0.9999999403953552,
				1
			],
			"translation":[
				6.332993507385254e-08,
				0.012731613591313362,
				7.881317287683487e-08
			]
		},
		{
			"children":[
				24
			],
			"name":"mixamorig:LeftHandPinky4",
			"rotation":[
				5.305513695930131e-05,
				-1.6572410459048115e-05,
				0.005174902267754078,
				0.9999866485595703
			],
			"scale":[
				0.9999999403953552,
				0.9999999403953552,
				0.9999999403953552
			],
			"translation":[
				6.705522537231445e-08,
				0.012731600552797318,
				1.448206603527069e-07
			]
		},
		{
			"children":[
				25
			],
			"name":"mixamorig:LeftHandPinky3",
			"rotation":[
				-0.09028328210115433,
				-0.033261243253946304,
				-0.005615829024463892,
				0.9953446984291077
			],
			"scale":[
				1,
				0.9999998211860657,
				1
			],
			"translation":[
				1.1175870895385742e-08,
				0.016452249139547348,
				1.2898817658424377e-07
			]
		},
		{
			"children":[
				26
			],
			"name":"mixamorig:LeftHandPinky2",
			"rotation":[
				0.05901871621608734,
				0.021565334871411324,
				0.0026276386342942715,
				0.9980204701423645
			],
			"scale":[
				0.9999998211860657,
				0.9999997615814209,
				1
			],
			"translation":[
				-5.494803190231323e-08,
				0.018049735575914383,
				-2.3981556296348572e-08
			]
		},
		{
			"children":[
				27
			],
			"name":"mixamorig:LeftHandPinky1",
			"rotation":[
				0.010063588619232178,
				0.0032861705403774977,
				-0.12378554046154022,
				0.99225252866745
			],
			"scale":[
				1,
				0.9999999403953552,
				0.9999998807907104
			],
			"translation":[
				0.022107604891061783,
				0.056442517787218094,
				0.00034375733230262995
			]
		},
		{
			"children":[
				8,
				13,
				18,
				23,
				28
			],
			"name":"mixamorig:LeftHand",
			"rotation":[
				-0.050693728029727936,
				0.003009486710652709,
				-0.11140500009059906,
				0.992476761341095
			],
			"scale":[
				1,
				0.9999998807907104,
				0.9999999403953552
			],
			"translation":[
				-9.313225746154785e-10,
				0.21386465430259705,
				-7.508788257837296e-08
			]
		},
		{
			"children":[
				29
			],
			"name":"mixamorig:LeftForeArm",
			"rotation":[
				-0.012863930314779282,
				-0.005038259085267782,
				0.013366633094847202,
				0.9998152256011963
			],
			"scale":[
				1,
				0.9999998807907104,
				1
			],
			"translation":[
				9.313225746154785e-10,
				0.15286125242710114,
				6.693881005048752e-08
			]
		},
		{
			"children":[
				30
			],
			"name":"mixamorig:LeftArm",
			"rotation":[
				-0.10149310529232025,
				-0.0352635458111763,
				-0.016776233911514282,
				0.994069516658783
			],
			"translation":[
				-6.51925802230835e-09,
				0.09721680730581284,
				2.0081643015146255e-07
			]
		},
		{
			"children":[
				31
			],
			"name":"mixamorig:LeftShoulder",
			"rotation":[
				0.49484577775001526,
				0.49901705980300903,
				-0.6484548449516296,
				0.2926022708415985
			],
			"scale":[
				0.9999998807907104,
				0.9999997615814209,
				0.9999999403953552
			],
			"translation":[
				0.04176383092999458,
				0.10544923692941666,
				-0.017156049609184265
			]
		},
		{
			"name":"mixamorig:RightHandThumb4_end",
			"rotation":[
				-3.5548587220546324e-06,
				-2.7893113951904525e-07,
				4.004687639280746e-07,
				1
			],
			"scale":[
				0.9999998807907104,
				0.9999998807907104,
				0.9999999403953552
			],
			"translation":[
				-3.725290298461914e-08,
				0.018143661320209503,
				7.270136848092079e-08
			]
		},
		{
			"children":[
				33
			],
			"name":"mixamorig:RightHandThumb4",
			"rotation":[
				3.565103043001727e-06,
				-5.587936158235607e-08,
				-4.5308846097213973e-07,
				1
			],
			"scale":[
				0.9999999403953552,
				1,
				0.9999999403953552
			],
			"translation":[
				-0.0025937221944332123,
				0.017956282943487167,
				-0.00017448875587433577
			]
		},
		{
			"children":[
				34
			],
			"name":"mixamorig:RightHandThumb3",
			"rotation":[
				0.03485548496246338,
				0.012690973468124866,
				0.0019020711770281196,
				0.9993099570274353
			],
			"scale":[
				1.0000001192092896,
				1.0000001192092896,
				1
			],
			"translation":[
				-0.0015065455809235573,
				0.023490972816944122,
				-6.257206405280158e-05
			]
		},
		{
			"children":[
				35
			],
			"name":"mixamorig:RightHandThumb2",
			"rotation":[
				-0.07946484535932541,
				-0.028644785284996033,
				-0.005616414360702038,
				0.9964101910591125
			],
			"scale":[
				1,
				1,
				0.9999999403953552
			],
			"translation":[
				0.004087029956281185,
				0.023015065118670464,
				0.00040717239608056843
			]
		},
		{
			"children":[
				36
			],
			"name":"mixamorig:RightHandThumb1",
			"rotation":[
				0.15114906430244446,
				-0.014831269159913063,
				-0.392722487449646,
				0.9070298075675964
			],
			"translation":[
				0.02382291480898857,
				0.014784025028347969,
				0.00824006274342537
			]
		},
		{
			"name":"mixamorig:RightHandIndex4_end",
			"rotation":[
				-4.0889266529120505e-05,
				6.643824690399924e-07,
				0.0006689720321446657,
				0.9999997615814209
			],
			"scale":[
				0.9999999403953552,
				0.9999998807907104,
				0.9999999403953552
			],
			"translation":[
				-1.862645149230957e-09,
				0.017818471416831017,
				-1.544831320643425e-07
			]
		},
		{
			"children":[
				38
			],
			"name":"mixamorig:RightHandIndex4",
			"rotation":[
				-2.886861693696119e-05,
				-1.3358659316509147e-06,
				0.000375337025616318,
				0.9999999403953552
			],
			"translation":[
				-1.862645149230957e-08,
				0.017818452790379524,
				-3.259629011154175e-09
			]
		},
		{
			"children":[
				39
			],
			"name":"mixamorig:RightHandIndex3",
			"rotation":[
				-0.007656964939087629,
				-0.0028312706854194403,
				-0.003026321530342102,
				0.9999620914459229
			],
			"scale":[
				1,
				0.9999999403953552,
				0.9999999403953552
			],
			"translation":[
				-2.9802322387695312e-08,
				0.020914075896143913,
				1.0244548320770264e-08
			]
		},
		{
			"children":[
				40
			],
			"name":"mixamorig:RightHandIndex2",
			"rotation":[
				0.07909286022186279,
				0.02875346504151821,
				0.0046653603203594685,
				0.9964415431022644
			],
			"scale":[
				1,
				1,
				0.9999999403953552
			],
			"translation":[
				3.725290298461914e-09,
				0.02297266572713852,
				-1.862645149230957e-08
			]
		},
		{
			"children":[
				41
			],
			"name":"mixamorig:RightHandIndex1",
			"rotation":[
				0.014291634783148766,
				0.001609258004464209,
				-0.1322915405035019,
				0.9911065101623535
			],
			"translation":[
				0.025287719443440437,
				0.053512997925281525,
				0.0003439169377088547
			]
		},
		{
			"name":"mixamorig:RightHandMiddle4_end",
			"rotation":[
				-5.435460479930043e-06,
				-2.2139138309285045e-06,
				-0.00031525344820693135,
				1
			],
			"translation":[
				3.725290298461914e-09,
				0.01805649697780609,
				6.833579391241074e-08
			]
		},
		{
			"children":[
				43
			],
			"name":"mixamorig:RightHandMiddle4",
			"rotation":[
				4.968846951669548e-06,
				1.1606764928728808e-05,
				0.0018363967537879944,
				0.9999983310699463
			],
			"scale":[
				1,
				1.0000001192092896,
				1
			],
			"translation":[
				0,
				0.018056435510516167,
				-1.1618249118328094e-07
			]
		},
		{
			"children":[
				44
			],
			"name":"mixamorig:RightHandMiddle3",
			"rotation":[
				-0.10821850597858429,
				-0.039425112307071686,
				-0.007179969921708107,
				0.9933191537857056
			],
			"scale":[
				0.9999999403953552,
				1,
				1
			],
			"translation":[
				-1.1175870895385742e-08,
				0.022320859134197235,
				2.8405338525772095e-08
			]
		},
		{
			"children":[
				45
			],
			"name":"mixamorig:RightHandMiddle2",
			"rotation":[
				0.1348004937171936,
				0.04881763085722923,
				0.005492227617651224,
				0.9896542429924011
			],
			"scale":[
				0.9999998807907104,
				0.9999998807907104,
				0.9999998807907104
			],
			"translation":[
				1.862645149230957e-08,
				0.023338550701737404,
				-1.8294667825102806e-07
			]
		},
		{
			"children":[
				46
			],
			"name":"mixamorig:RightHandMiddle1",
			"rotation":[
				-0.025546224787831306,
				-0.007888448424637318,
				-0.0940302163362503,
				0.9952103495597839
			],
			"scale":[
				1,
				0.9999999403953552,
				0.9999999403953552
			],
			"translation":[
				0.007652714848518372,
				0.05787549167871475,
				0.0003904489567503333
			]
		},
		{
			"name":"mixamorig:RightHandRing4_end",
			"rotation":[
				1.4564489902113564e-05,
				-1.0076911394207855e-06,
				-0.0002956665412057191,
				0.9999999403953552
			],
			"translation":[
				3.725290298461914e-08,
				0.016754550859332085,
				-2.514570951461792e-08
			]
		},
		{
			"children":[
				48
			],
			"name":"mixamorig:RightHandRing4",
			"rotation":[
				1.2342818990873639e-05,
				1.6093254089355469e-06,
				-0.00012460770085453987,
				1
			],
			"scale":[
				1,
				0.9999998807907104,
				1
			],
			"translation":[
				3.725290298461914e-08,
				0.016754554584622383,
				-1.1734664440155029e-07
			]
		},
		{
			"children":[
				49
			],
			"name":"mixamorig:RightHandRing3",
			"rotation":[
				2.049422801064793e-05,
				2.86987196886912e-05,
				0.0009975284337997437,
				0.9999995231628418
			],
			"scale":[
				1,
				0.9999999403953552,
				1
			],
			"translation":[
				4.470348358154297e-08,
				0.02107160910964012,
				1.0151416063308716e-07
			]
		},
		{
			"children":[
				50
			],
			"name":"mixamorig:RightHandRing2",
			"rotation":[
				0.08117730915546417,
				0.029672496020793915,
				0.002453310415148735,
				0.9962549209594727
			],
			"scale":[
				1.0000001192092896,
				1.0000001192092896,
				0.9999999403953552
			],
			"translation":[
				1.1175870895385742e-08,
				0.021448705345392227,
				5.9371814131736755e-08
			]
		},
		{
			"children":[
				51
			],
			"name":"mixamorig:RightHandRing1",
			"rotation":[
				0.00405401224270463,
				0.0013554312754422426,
				-0.007970191538333893,
				0.9999591112136841
			],
			"scale":[
				1,
				0.9999999403953552,
				0.9999998807907104
			],
			"translation":[
				-0.009078454226255417,
				0.05953704193234444,
				-0.0010826908983290195
			]
		},
		{
			"name":"mixamorig:RightHandPinky4_end",
			"rotation":[
				4.806715878657997e-06,
				4.5009070248624994e-08,
				9.899667929857969e-08,
				1
			],
			"scale":[
				1,
				1,
				1.0000001192092896
			],
			"translation":[
				-3.4458935260772705e-08,
				0.0126531682908535,
				-4.46016201749444e-08
			]
		},
		{
			"children":[
				53
			],
			"name":"mixamorig:RightHandPinky4",
			"rotation":[
				-1.3925442544859834e-05,
				-7.232979442051146e-06,
				-0.0014518683310598135,
				0.999998927116394
			],
			"scale":[
				0.9999998807907104,
				0.9999998211860657,
				1
			],
			"translation":[
				5.676504224538803e-05,
				0.009123487398028374,
				-6.624177331104875e-07
			]
		},
		{
			"children":[
				54
			],
			"name":"mixamorig:RightHandPinky3",
			"rotation":[
				-0.0801500454545021,
				-0.02917182818055153,
				-0.0007410640828311443,
				0.9963555932044983
			],
			"translation":[
				-5.960464477539063e-08,
				0.015195824205875397,
				-7.450580596923828e-09
			]
		},
		{
			"children":[
				55
			],
			"name":"mixamorig:RightHandPinky2",
			"rotation":[
				0.02608691342175007,
				0.009546642191708088,
				0.0019053677096962929,
				0.9996122717857361
			],
			"scale":[
				1,
				1,
				0.9999998807907104
			],
			"translation":[
				-3.725290298461914e-09,
				0.02013828419148922,
				-1.3504177331924438e-07
			]
		},
		{
			"children":[
				56
			],
			"name":"mixamorig:RightHandPinky1",
			"rotation":[
				0.02538003772497177,
				0.01172642968595028,
				0.05699196457862854,
				0.9979830980300903
			],
			"scale":[
				0.9999999403953552,
				1.0000001192092896,
				1
			],
			"translation":[
				-0.023861106485128403,
				0.05749566853046417,
				0.00017336197197437286
			]
		},
		{
			"children":[
				37,
				42,
				47,
				52,
				57
			],
			"name":"mixamorig:RightHand",
			"rotation":[
				-0.05600184574723244,
				-0.03826086223125458,
				0.10889176279306412,
				0.9917371273040771
			],
			"scale":[
				1,
				1,
				0.9999999403953552
			],
			"translation":[
				9.313225746154785e-10,
				0.21387353539466858,
				-5.2619725465774536e-08
			]
		},
		{
			"children":[
				58
			],
			"name":"mixamorig:RightForeArm",
			"rotation":[
				-0.012773727998137474,
				-0.004815265070647001,
				-0.005273167975246906,
				0.9998929500579834
			],
			"scale":[
				0.9999999403953552,
				0.9999999403953552,
				0.9999999403953552
			],
			"translation":[
				0,
				0.15281322598457336,
				-1.755543053150177e-07
			]
		},
		{
			"children":[
				59
			],
			"name":"mixamorig:RightArm",
			"rotation":[
				-0.10123375803232193,
				-0.035905636847019196,
				-0.010477895848453045,
				0.9941593408584595
			],
			"scale":[
				0.9999998807907104,
				0.9999999403953552,
				1
			],
			"translation":[
				-3.725290298461914e-09,
				0.09721672534942627,
				-6.612390279769897e-08
			]
		},
		{
			"children":[
				60
			],
			"name":"mixamorig:RightShoulder",
			"rotation":[
				0.6335936784744263,
				-0.3067161738872528,
				0.5134997963905334,
				0.49071604013442993
			],
			"scale":[
				0.9999998211860657,
				0.9999998807907104,
				1
			],
			"translation":[
				-0.04272442311048508,
				0.10547250509262085,
				0.014626623131334782
			]
		},
		{
			"children":[
				3,
				32,
				61
			],
			"name":"mixamorig:Spine2",
			"rotation":[
				2.5924240532049225e-08,
				1.870212429366802e-07,
				-5.791663149068427e-09,
				1
			],
			"scale":[
				0.9999999403953552,
				0.9999999403953552,
				0.9999999403953552
			],
			"translation":[
				1.3969838619232178e-08,
				0.1083812490105629,
				1.955777406692505e-08
			]
		},
		{
			"children":[
				62
			],
			"name":"mixamorig:Spine1",
			"rotation":[
				7.661947165615857e-08,
				-6.076879799365997e-08,
				2.7212081477046013e-09,
				1
			],
			"scale":[
				1,
				1,
				0.9999999403953552
			],
			"translation":[
				-7.916241884231567e-09,
				0.09483379870653152,
				-1.3969838619232178e-09
			]
		},
		{
			"children":[
				63
			],
			"name":"mixamorig:Spine",
			"rotation":[
				-0.03829408809542656,
				0.0005975306266918778,
				0.01457110047340393,
				0.99916011095047
			],
			"scale":[
				1,
				0.9999999403953552,
				1
			],
			"translation":[
				-0.002370574977248907,
				0.081013023853302,
				-0.0062188757583498955
			]
		},
		{
			"name":"mixamorig:LeftToe_End_end",
			"rotation":[
				2.8973445296287537e-06,
				-7.270137416526268e-07,
				6.951740942895412e-07,
				1
			],
			"scale":[
				0.9999999403953552,
				1,
				1
			],
			"translation":[
				-1.6880221664905548e-08,
				0.012653452344238758,
				-2.6542693376541138e-08
			]
		},
		{
			"children":[
				65
			],
			"name":"mixamorig:LeftToe_End",
			"rotation":[
				1.7136335372924805e-07,
				6.740447844322262e-08,
				1.4531542547047138e-07,
				1
			],
			"scale":[
				0.9999999403953552,
				1,
				0.9999999403953552
			],
			"translation":[
				5.3551048040390015e-09,
				0.007443121634423733,
				1.4901161193847656e-08
			]
		},
		{
			"children":[
				66
			],
			"name":"mixamorig:LeftToeBase",
			"rotation":[
				0.3751714825630188,
				-0.629292905330658,
				0.45125246047973633,
				0.5095174908638
			],
			"scale":[
				0.9999999403953552,
				1,
				1
			],
			"translation":[
				-9.313225746154785e-09,
				0.041199348866939545,
				5.820766091346741e-09
			]
		},
		{
			"children":[
				67
			],
			"name":"mixamorig:LeftFoot",
			"rotation":[
				-0.03436262160539627,
				-0.005088111851364374,
				0.18058811128139496,
				0.9829452037811279
			],
			"scale":[
				1,
				1.0000001192092896,
				0.9999999403953552
			],
			"translation":[
				9.778887033462524e-09,
				0.32252493500709534,
				4.889443516731262e-09
			]
		},
		{
			"children":[
				68
			],
			"name":"mixamorig:LeftLeg",
			"rotation":[
				-0.026377253234386444,
				-0.0003027443017344922,
				-0.013936065137386322,
				0.9995548725128174
			],
			"translation":[
				1.9441358745098114e-08,
				0.40442872047424316,
				4.6566128730773926e-09
			]
		},
		{
			"children":[
				69
			],
			"name":"mixamorig:LeftUpLeg",
			"rotation":[
				8.262893970822915e-06,
				-0.0041572581976652145,
				0.9999901056289673,
				0.0015846188180148602
			],
			"scale":[
				0.9999999403953552,
				1,
				1.0000001192092896
			],
			"translation":[
				0.1003480926156044,
				-0.04500710219144821,
				-0.04304661974310875
			]
		},
		{
			"name":"mixamorig:RightToe_End_end",
			"rotation":[
				-2.7939679458910405e-09,
				3.9894078440738667e-07,
				-2.0216066332068294e-07,
				1
			],
			"scale":[
				1,
				1,
				0.9999999403953552
			],
			"translation":[
				3.023887984454632e-08,
				0.05437920615077019,
				1.2113014236092567e-07
			]
		},
		{
			"children":[
				71
			],
			"name":"mixamorig:RightToe_End",
			"rotation":[
				7.195048965513706e-07,
				8.166316547431052e-07,
				-7.025118975434452e-08,
				1
			],
			"translation":[
				2.8579961508512497e-08,
				0.0543791726231575,
				1.1658994480967522e-07
			]
		},
		{
			"children":[
				72
			],
			"name":"mixamorig:RightToeBase",
			"rotation":[
				0.16425380110740662,
				-0.05983975902199745,
				0.0031928366515785456,
				0.9845962524414062
			],
			"scale":[
				1.0000001192092896,
				0.9999999403953552,
				1
			],
			"translation":[
				-1.280568540096283e-08,
				0.12085627764463425,
				1.0989606380462646e-07
			]
		},
		{
			"children":[
				73
			],
			"name":"mixamorig:RightFoot",
			"rotation":[
				0.6216487884521484,
				-0.046432528644800186,
				0.11146408319473267,
				0.7739332318305969
			],
			"translation":[
				-1.3271346688270569e-08,
				0.3241661489009857,
				-2.421438694000244e-08
			]
		},
		{
			"children":[
				74
			],
			"name":"mixamorig:RightLeg",
			"rotation":[
				-0.052480459213256836,
				-0.0014986037276685238,
				-0.016039645299315453,
				0.9984920024871826
			],
			"scale":[
				0.9999998807907104,
				1,
				0.9999999403953552
			],
			"translation":[
				-1.548323780298233e-08,
				0.404441237449646,
				5.122274160385132e-09
			]
		},
		{
			"children":[
				75
			],
			"name":"mixamorig:RightUpLeg",
			"rotation":[
				1.3433792446448933e-05,
				-0.005570307839661837,
				0.9999822378158569,
				0.002123253419995308
			],
			"scale":[
				1,
				1.000000238418579,
				1
			],
			"translation":[
				-0.10484699159860611,
				-0.04500711336731911,
				0.031244315207004547
			]
		},
		{
			"children":[
				64,
				70,
				76
			],
			"name":"mixamorig:Hips",
			"rotation":[
				2.824503131382272e-10,
				-0.1777096390724182,
				-2.7820012959978158e-08,
				0.9840829968452454
			],
			"translation":[
				0.016677889972925186,
				0.8325220346450806,
				-0.001349155092611909
			]
		},
		{
			"mesh":0,
			"name":"Mesh_0.001",
			"skin":0
		},
		{
			"children":[
				78,
				77
			],
			"name":"Armature"
		}
	],
	"materials":[
		{
			"doubleSided":true,
			"name":"Material.001",
			"normalTexture":{
				"index":0,
				"scale":0
			},
			"pbrMetallicRoughness":{
				"baseColorTexture":{
					"index":1
				},
				"metallicFactor":0,
				"roughnessFactor":0.4999999403953552
			}
		}
	],
	"meshes":[
		{
			"name":"Mesh_0mesh",
			"primitives":[
				{
					"attributes":{
						"POSITION":0,
						"NORMAL":1,
						"TEXCOORD_0":2,
						"JOINTS_0":3,
						"WEIGHTS_0":4
					},
					"indices":5,
					"material":0
				}
			]
		}
	],
	"textures":[
		{
			"sampler":0,
			"source":0
		},
		{
			"sampler":0,
			"source":0
		}
	],
	"images":[
		{
			"mimeType":"image/png",
			"name":"texture_pbr_20250901",
			"uri":"texture_pbr_20250901.png"
		}
	],
	"skins":[
		{
			"inverseBindMatrices":6,
			"joints":[
				77,
				64,
				63,
				62,
				3,
				2,
				1,
				0,
				32,
				31,
				30,
				29,
				8,
				7,
				6,
				5,
				4,
				13,
				12,
				11,
				10,
				9,
				18,
				17,
				16,
				15,
				14,
				23,
				22,
				21,
				20,
				19,
				28,
				27,
				26,
				25,
				24,
				61,
				60,
				59,
				58,
				37,
				36,
				35,
				34,
				33,
				42,
				41,
				40,
				39,
				38,
				47,
				46,
				45,
				44,
				43,
				52,
				51,
				50,
				49,
				48,
				57,
				56,
				55,
				54,
				53,
				70,
				69,
				68,
				67,
				66,
				65,
				76,
				75,
				74,
				73,
				72,
				71
			],
			"name":"Armature"
		}
	],
	"accessors":[
		{
			"bufferView":0,
			"componentType":5126,
			"count":38464,
			"max":[
				0.6750431656837463,
				1.5205484628677368,
				0.16702920198440552
			],
			"min":[
				-0.6367807388305664,
				-3.134463799625564e-09,
				-0.15909697115421295
			],
			"type":"VEC3"
		},
		{
			"bufferView":1,
			"componentType":5126,
			"count":38464,
			"type":"VEC3"
		},
		{
			"bufferView":2,
			"componentType":5126,
			"count":38464,
			"type":"VEC2"
		},
		{
			"bufferView":3,
			"componentType":5121,
			"count":38464,
			"type":"VEC4"
		},
		{
			"bufferView":4,
			"componentType":5126,
			"count":38464,
			"type":"VEC4"
		},
		{
			"bufferView":5,
			"componentType":5123,
			"count":158301,
			"type":"SCALAR"
		},
		{
			"bufferView":6,
			"componentType":5126,
			"count":78,
			"type":"MAT4"
		}
	],
	"bufferViews":[
		{
			"buffer":0,
			"byteLength":461568,
			"byteOffset":0,
			"target":34962
		},
		{
			"buffer":0,
			"byteLength":461568,
			"byteOffset":461568,
			"target":34962
		},
		{
			"buffer":0,
			"byteLength":307712,
			"byteOffset":923136,
			"target":34962
		},
		{
			"buffer":0,
			"byteLength":153856,
			"byteOffset":1230848,
			"target":34962
		},
		{
			"buffer":0,
			"byteLength":615424,
			"byteOffset":1384704,
			"target":34962
		},
		{
			"buffer":0,
			"byteLength":316602,
			"byteOffset":2000128,
			"target":34963
		},
		{
			"buffer":0,
			"byteLength":4992,
			"byteOffset":2316732
		}
	],
	"samplers":[
		{
			"magFilter":9729,
			"minFilter":9987
		}
	],
	"buffers":[
		{
			"byteLength":2321724,
			"uri":"Captain%20clark.bin"
		}
	]
}
